HIERARCHY
ROOT Hip
{
  OFFSET 0.0 0.0 0.0
  CHANNELS 6 Xposition Yposition Zposition Xrotation Yrotation Zrotation
  JOINT LowerSpine
  {
    OFFSET 0.0 0.061367 -0.03653
    CHANNELS 3 Xrotation Yrotation Zrotation
    JOINT MiddleSpine
    {
      OFFSET 0.0 0.056002 0.002633
      CHANNELS 3 Xrotation Yrotation Zrotation
      JOINT Chest
      {
        OFFSET 0.0 0.069296 -0.013882
        CHANNELS 3 Xrotation Yrotation Zrotation
        JOINT Neck
        {
          OFFSET 0.0 0.156156 -0.002923
          CHANNELS 3 Xrotation Yrotation Zrotation
          JOINT Head
          {
            OFFSET 0.0 0.088183 0.023986
            CHANNELS 3 Xrotation Yrotation Zrotation
            End Site
            {
              OFFSET 1e-06 0.123215 0.003678
            }
          }
        }
        JOINT LClavicle
        {
          OFFSET 0.014189 0.150698 0.046467
          CHANNELS 3 Xrotation Yrotation Zrotation
          JOINT LShoulder
          {
            OFFSET 0.082893 0.021616 -0.034976
            CHANNELS 3 Xrotation Yrotation Zrotation
            JOINT LForearm
            {
              OFFSET 0.195645 -0.000695 -0.001695
              CHANNELS 3 Xrotation Yrotation Zrotation
              JOINT LHand
              {
                OFFSET 0.163209 0.000474 -0.000977
                CHANNELS 3 Xrotation Yrotation Zrotation
                End Site
                {
                  OFFSET 0.0 0.006864 0.0
                }
              }
            }
          }
        }
        JOINT RClavicle
        {
          OFFSET -0.014189 0.150698 0.046467
          CHANNELS 3 Xrotation Yrotation Zrotation
          JOINT RShoulder
          {
            OFFSET -0.082908 0.021619 -0.034982
            CHANNELS 3 Xrotation Yrotation Zrotation
            JOINT RForearm
            {
              OFFSET -0.195645 -0.000695 -0.001695
              CHANNELS 3 Xrotation Yrotation Zrotation
              JOINT RHand
              {
                OFFSET -0.163209 0.000474 -0.000977
                CHANNELS 3 Xrotation Yrotation Zrotation
                End Site
                {
                  OFFSET 0.0 0.006864 0.0
                }
              }
            }
          }
        }
      }
    }
  }
  JOINT RThigh
  {
    OFFSET -0.072558 0.02774 -0.005953
    CHANNELS 3 Xrotation Yrotation Zrotation
    JOINT RShin
    {
      OFFSET -0.005253 -0.285537 0.0
      CHANNELS 3 Xrotation Yrotation Zrotation
      JOINT RFoot
      {
        OFFSET 0.0 -0.28038 0.0
        CHANNELS 3 Xrotation Yrotation Zrotation
        JOINT RToe
        {
          OFFSET 0.0 -0.030816 0.064441
          CHANNELS 3 Xrotation Yrotation Zrotation
          End Site
          {
            OFFSET 0.0 0.0 0.043231
          }
        }
      }
    }
  }
  JOINT LThigh
  {
    OFFSET 0.072557 0.027741 -0.005953
    CHANNELS 3 Xrotation Yrotation Zrotation
    JOINT LShin
    {
      OFFSET 0.005253 -0.285539 0.0
      CHANNELS 3 Xrotation Yrotation Zrotation
      JOINT LFoot
      {
        OFFSET 0.0 -0.28038 0.0
        CHANNELS 3 Xrotation Yrotation Zrotation
        JOINT LToe
        {
          OFFSET 0.0 -0.030816 0.064441
          CHANNELS 3 Xrotation Yrotation Zrotation
          End Site
          {
            OFFSET 0.0 0.0 0.043231
          }
        }
      }
    }
  }
}
MOTION
Frames: 9
Frame Time: 0.03333333333333333
0.013054 0.589946 -0.001156 4.825728 8.431493 -2.779072 -1.841326 -0.534273 -0.019036 -0.842356 0.896153 0.333201 -5.832538 2.201536 1.563907 -1.782534 0.112415 0.079081 -0.009205 0.058602 -0.010853 1.431847 0.753567 -16.828129 21.012651 -28.230085 -60.571484 10.90259 -23.576769 -1.51092 0.068552 0.067201 -0.117941 1.179743 -1.795762 15.578374 14.779025 33.338001 62.235867 7.383377 16.905415 1.767091 0.121285 -0.096215 0.00613 -4.444011 -4.23674 3.569753 12.933638 -2.173517 -0.399535 -0.90507 0.640206 -0.009339 -0.290442 0.147453 0.010826 -2.021687 5.112529 -3.512572 7.318896 3.500721 -1.005561 -0.940178 -0.483038 -0.139002 -0.07501 -0.003358 0.005834 
0.00549 0.588213 -0.006683 5.513201 11.779198 -2.187756 -1.537541 -0.469336 0.335389 -1.330944 0.189908 0.619952 -6.675234 1.56094 0.393788 -1.122334 0.067808 0.098928 0.009219 -0.085889 0.016185 0.832231 0.533935 -16.200788 22.812769 -27.831326 -60.431206 13.016906 -23.495346 -1.943049 0.043123 0.063236 -0.061226 0.958454 -0.377173 15.557168 16.552851 32.217506 60.801662 10.430788 20.391954 3.156565 -0.101008 -0.020696 -0.009621 -5.959301 -3.007627 2.980721 16.815187 -2.437597 -0.765991 -0.1914 0.137863 -0.102463 -0.351349 -0.000694 0.065574 -2.949384 5.991172 -4.388638 5.137753 3.857543 -0.36741 -0.71318 -0.927697 -0.2376 0.010229 -0.080265 -0.036777 
0.003805 0.581443 0.001469 6.531703 11.733292 -1.658376 -1.559042 -0.543668 0.337106 -1.461871 0.2481 0.829726 -7.748536 1.0955 0.457465 -1.077779 0.181047 -0.034466 0.021761 -0.111571 0.01963 1.03398 0.491501 -16.398218 23.672134 -27.826988 -60.887409 13.528937 -25.802265 -2.675688 0.043251 0.078181 -0.058471 0.960612 -0.320053 15.343305 18.154915 31.361206 61.257359 11.113139 21.679674 4.30249 -0.123135 -0.031159 -0.004468 -5.824043 -3.070657 3.504001 14.874422 -2.831966 -0.840338 -0.770866 0.288178 -0.171524 -0.299973 0.047055 0.077632 -4.937025 5.218817 -4.63716 5.080732 4.077867 -0.031117 -0.576762 -0.828339 -0.082347 0.030238 -0.074828 -0.041075 
0.007828 0.576691 0.006086 6.500712 10.10699 -1.219155 -1.509729 -0.596708 0.346498 -1.50997 0.340226 0.918557 -8.104239 1.006836 0.544209 -1.004539 0.239512 -0.05018 0.025841 -0.150059 0.019482 1.068802 0.388454 -16.616756 23.657719 -27.96887 -61.609982 13.464107 -26.553917 -2.926054 0.047787 0.092648 -0.063503 0.937336 -0.42396 15.171125 18.251549 30.829357 62.244267 11.005746 21.888107 4.696456 -0.153742 -0.029791 -0.007059 -5.281907 -3.388367 3.865163 14.040214 -3.135379 -0.909931 -0.980347 0.368734 -0.213879 -0.298161 0.062708 0.090077 -5.110948 4.720184 -4.967285 4.543831 3.811426 0.053848 -0.589067 -0.763938 0.012046 0.041053 -0.081819 -0.048861 
0.006285 0.57476 0.012789 6.728433 9.46199 -1.00334 -1.458587 -0.626731 0.336665 -1.529402 0.395306 0.930357 -8.438393 1.012412 0.51343 -0.966666 0.27227 -0.03405 0.026604 -0.1715 0.018978 1.082528 0.316444 -16.625223 23.371391 -28.233706 -61.946121 13.372491 -26.443953 -3.037692 0.049807 0.099177 -0.065354 0.913066 -0.469349 15.181515 17.882183 30.735695 62.974182 10.633562 21.16748 4.830234 -0.16527 -0.026703 -0.008598 -5.457222 -3.543462 4.042016 14.068047 -3.304374 -0.874551 -1.059508 0.33779 -0.259607 -0.300494 0.065102 0.093378 -5.574939 4.467546 -5.253684 4.360537 3.59576 0.07658 -0.667124 -0.752315 0.035359 0.042593 -0.081113 -0.051827 
0.004767 0.572266 0.017721 7.002794 9.556623 -0.776995 -1.406919 -0.630505 0.317194 -1.544 0.423646 0.911638 -8.74681 1.046641 0.504309 -0.945507 0.289089 -0.022536 0.024759 -0.171635 0.020119 1.087999 0.308647 -16.51993 23.152344 -28.391685 -62.122643 13.242924 -26.023193 -3.137494 0.04833 0.096879 -0.062394 0.894179 -0.473569 15.229478 17.184797 31.067465 63.58279 10.044199 19.815155 4.945387 -0.159465 -0.024283 -0.007994 -5.827361 -3.433128 4.114275 14.234899 -3.268008 -0.816555 -1.184563 0.26987 -0.292762 -0.302543 0.060422 0.09041 -6.271078 4.362981 -5.43669 4.419667 3.480358 0.097499 -0.756609 -0.736751 0.024351 0.038898 -0.075283 -0.051315 
0.003123 0.570394 0.02047 7.183562 10.282322 -0.707975 -1.361185 -0.628366 0.305872 -1.549529 0.446271 0.898648 -8.877874 1.150418 0.491473 -0.918222 0.304081 -0.014871 0.02321 -0.17291 0.019362 1.09569 0.321669 -16.369886 23.011654 -28.496393 -62.235928 13.172863 -25.583502 -3.196534 0.047836 0.095863 -0.060702 0.876193 -0.464008 15.285636 16.45015 31.560331 64.002647 9.481499 18.38925 4.994703 -0.154917 -0.024198 -0.007766 -6.195279 -3.189635 4.175067 14.573804 -3.137823 -0.801091 -1.303837 0.191757 -0.326517 -0.308031 0.057962 0.089116 -6.951035 4.453581 -5.413778 4.598774 3.462678 0.094024 -0.815526 -0.729993 0.009691 0.037446 -0.072797 -0.051254 
0.001204 0.569462 0.023756 7.291863 11.470189 -0.692846 -1.329664 -0.621776 0.318136 -1.546343 0.474869 0.898597 -8.902082 1.338629 0.498377 -0.887699 0.318913 -0.01572 0.022604 -0.180937 0.016837 1.091604 0.318342 -16.223238 23.000038 -28.451216 -62.349777 13.142835 -25.414919 -3.213572 0.048641 0.097315 -0.060923 0.863504 -0.43968 15.32249 15.764996 31.997875 64.338043 8.962807 17.194101 5.036753 -0.153609 -0.024033 -0.00849 -6.468109 -2.838963 4.228154 14.910612 -2.948241 -0.838853 -1.442427 0.116592 -0.361771 -0.317556 0.057986 0.090103 -7.566021 4.658048 -5.297071 4.720992 3.519685 0.078012 -0.832291 -0.738505 -0.010136 0.038346 -0.073243 -0.052385 
-0.000205 0.568807 0.028155 7.490559 13.002795 -0.915938 -1.301871 -0.622752 0.334461 -1.538602 0.498908 0.907787 -8.907511 1.577988 0.513829 -0.871327 0.333762 -0.024741 0.021991 -0.191026 0.012881 1.089249 0.294984 -16.112654 22.96426 -28.350054 -62.521599 13.05737 -25.260801 -3.197281 0.050419 0.101328 -0.063436 0.861078 -0.435986 15.34491 15.097204 32.347126 64.739067 8.45139 16.210104 5.06849 -0.15268 -0.025479 -0.009379 -6.74915 -2.580459 4.334294 15.322462 -2.796824 -0.870143 -1.538315 0.048187 -0.400368 -0.331284 0.061919 0.091397 -8.338829 4.933958 -5.172137 4.916862 3.639858 0.064226 -0.848198 -0.75997 -0.037425 0.039194 -0.075694 -0.053847 
